<svg version="1.1" xmlns="http://www.w3.org/2000/svg" xmlns:xlink="http://www.w3.org/1999/xlink" width="305" height="310.75" viewBox="0,0,305,310.75"><g transform="translate(-65.75,-18.75)"><g data-paper-data="{&quot;isPaintingLayer&quot;:true}" fill-rule="nonzero" stroke-linecap="butt" stroke-linejoin="miter" stroke-miterlimit="10" stroke-dasharray="" stroke-dashoffset="0" style="mix-blend-mode: normal"><path d="M115.5,100c27.06195,0 49,22.83348 49,51c0,28.16652 -21.93805,51 -49,51c-27.06195,0 -49,-22.83348 -49,-51c0,-28.16652 21.93805,-51 49,-51z" fill="#04ff00" stroke="#000000" stroke-width="1.5"/><path d="M154.5,328.5v-243h115.5v243z" fill="#612f2f" stroke="#000000" stroke-width="2"/><text transform="translate(199,143.63695) scale(1.00956,1.00956)" font-size="40" xml:space="preserve" fill="#000000" fill-rule="nonzero" stroke="none" stroke-width="1" stroke-linecap="butt" stroke-linejoin="miter" stroke-miterlimit="10" stroke-dasharray="" stroke-dashoffset="0" font-family="Sans Serif" font-weight="normal" text-anchor="start" style="mix-blend-mode: normal"><tspan x="0" dy="0">O</tspan></text><text transform="translate(202.73508,184.00994) scale(1.15598,1.0863)" font-size="40" xml:space="preserve" fill="#000000" fill-rule="nonzero" stroke="none" stroke-width="1" stroke-linecap="butt" stroke-linejoin="miter" stroke-miterlimit="10" stroke-dasharray="" stroke-dashoffset="0" font-family="Sans Serif" font-weight="normal" text-anchor="start" style="mix-blend-mode: normal"><tspan x="0" dy="0">S</tspan></text><path d="M103,70.25c0,28.02845 23.72891,50.75 53,50.75c29.27109,0 53,-22.72155 53,-50.75c0,-28.02845 -23.72891,-50.75 -53,-50.75c-29.27109,0 -53,22.72155 -53,50.75z" fill="#04ff00" stroke="#000000" stroke-width="1.5"/><path d="M205,75.07301c0,30.15084 24.04468,54.59292 53.70529,54.59292c29.66061,0 53.70529,-24.44208 53.70529,-54.59292c0,-30.15084 -24.04468,-54.59292 -53.70529,-54.59292c-29.66061,0 -53.70529,24.44208 -53.70529,54.59292z" fill="#04ff00" stroke="#000000" stroke-width="1.5"/><path d="M255,161.75c0,31.6183 25.74363,57.25 57.5,57.25c31.75637,0 57.5,-25.6317 57.5,-57.25c0,-31.6183 -25.74363,-57.25 -57.5,-57.25c-31.75637,0 -57.5,25.6317 -57.5,57.25z" fill="#04ff00" stroke="#000000" stroke-width="1.5"/><text transform="translate(105.74667,163.5375) scale(0.83333,0.83333)" font-size="40" xml:space="preserve" fill="#000000" fill-rule="nonzero" stroke="none" stroke-width="1" stroke-linecap="butt" stroke-linejoin="miter" stroke-miterlimit="10" stroke-dasharray="" stroke-dashoffset="0" font-family="Sans Serif" font-weight="normal" text-anchor="start" style="mix-blend-mode: normal"><tspan x="0" dy="0">T</tspan></text><text transform="translate(148.42801,82.27734) scale(0.95583,0.95583)" font-size="40" xml:space="preserve" fill="#000000" fill-rule="nonzero" stroke="none" stroke-width="1" stroke-linecap="butt" stroke-linejoin="miter" stroke-miterlimit="10" stroke-dasharray="" stroke-dashoffset="0" font-family="Sans Serif" font-weight="normal" text-anchor="start" style="mix-blend-mode: normal"><tspan x="0" dy="0">r</tspan></text><text transform="translate(250.52486,80.34453) scale(0.85665,0.85665)" font-size="40" xml:space="preserve" fill="#000000" fill-rule="nonzero" stroke="none" stroke-width="1" stroke-linecap="butt" stroke-linejoin="miter" stroke-miterlimit="10" stroke-dasharray="" stroke-dashoffset="0" font-family="Sans Serif" font-weight="normal" text-anchor="start" style="mix-blend-mode: normal"><tspan x="0" dy="0">e</tspan></text><text transform="translate(301.5323,171.81562) scale(0.85581,0.85581)" font-size="40" xml:space="preserve" fill="#000000" fill-rule="nonzero" stroke="none" stroke-width="1" stroke-linecap="butt" stroke-linejoin="miter" stroke-miterlimit="10" stroke-dasharray="" stroke-dashoffset="0" font-family="Sans Serif" font-weight="normal" text-anchor="start" style="mix-blend-mode: normal"><tspan x="0" dy="0">e</tspan></text></g></g></svg>